<svg width="136" height="38" viewBox="0 0 136 38" fill="none" xmlns="http://www.w3.org/2000/svg">
<path d="M5.01562 20.1406L14.5469 23.3594V28.1562L0.71875 22.5312V18.9688L5.01562 20.1406ZM14.5469 17.5312L5 20.8125L0.71875 21.9375V18.375L14.5469 12.75V17.5312ZM20.7969 7.25H25.2656L30.3438 23.0781L35.4219 7.25H39.8906L32.1562 30H28.5312L20.7969 7.25ZM18.0781 7.25H22.7031L23.5625 24.6875V30H18.0781V7.25ZM37.9844 7.25H42.625V30H37.125V24.6875L37.9844 7.25ZM56.0625 12.0312L50.5156 30H44.625L52.9844 7.25H56.7188L56.0625 12.0312ZM60.6562 30L55.0938 12.0312L54.375 7.25H58.1562L66.5625 30H60.6562ZM60.4375 21.5156V25.75H48.7656V21.5156H60.4375ZM68.2344 7.25H77.1875C78.9375 7.25 80.4583 7.51042 81.75 8.03125C83.0417 8.55208 84.0365 9.32292 84.7344 10.3438C85.4427 11.3646 85.7969 12.625 85.7969 14.125C85.7969 15.4271 85.5938 16.5156 85.1875 17.3906C84.7812 18.2656 84.2135 18.9896 83.4844 19.5625C82.7656 20.125 81.9271 20.5885 80.9688 20.9531L79.1719 21.9688H71.6562L71.625 17.7344H77.1875C77.8854 17.7344 78.4635 17.6094 78.9219 17.3594C79.3802 17.1094 79.724 16.7552 79.9531 16.2969C80.1927 15.8281 80.3125 15.2708 80.3125 14.625C80.3125 13.9688 80.1927 13.4062 79.9531 12.9375C79.7135 12.4688 79.3594 12.1094 78.8906 11.8594C78.4323 11.6094 77.8646 11.4844 77.1875 11.4844H73.7188V30H68.2344V7.25ZM80.6875 30L75.6562 19.9375L81.4688 19.9062L86.5625 29.7656V30H80.6875ZM100.828 23.9531C100.828 23.599 100.776 23.2812 100.672 23C100.568 22.7083 100.375 22.4375 100.094 22.1875C99.8125 21.9375 99.4062 21.6875 98.875 21.4375C98.3542 21.1771 97.6667 20.9062 96.8125 20.625C95.8125 20.2917 94.849 19.9167 93.9219 19.5C92.9948 19.0729 92.1667 18.5781 91.4375 18.0156C90.7083 17.4427 90.1302 16.776 89.7031 16.0156C89.276 15.2448 89.0625 14.349 89.0625 13.3281C89.0625 12.349 89.2812 11.4688 89.7188 10.6875C90.1562 9.89583 90.7656 9.22396 91.5469 8.67188C92.3385 8.10938 93.2656 7.68229 94.3281 7.39062C95.3906 7.08854 96.5521 6.9375 97.8125 6.9375C99.4792 6.9375 100.948 7.22917 102.219 7.8125C103.5 8.38542 104.5 9.20312 105.219 10.2656C105.948 11.3177 106.312 12.5625 106.312 14H100.859C100.859 13.4271 100.74 12.9219 100.5 12.4844C100.271 12.0469 99.9219 11.7031 99.4531 11.4531C98.9844 11.2031 98.3958 11.0781 97.6875 11.0781C97 11.0781 96.4219 11.1823 95.9531 11.3906C95.4844 11.599 95.1302 11.8802 94.8906 12.2344C94.651 12.5781 94.5312 12.9583 94.5312 13.375C94.5312 13.7188 94.625 14.0312 94.8125 14.3125C95.0104 14.5833 95.2865 14.8385 95.6406 15.0781C96.0052 15.3177 96.4427 15.5469 96.9531 15.7656C97.474 15.9844 98.0573 16.1979 98.7031 16.4062C99.9115 16.7917 100.984 17.224 101.922 17.7031C102.87 18.1719 103.667 18.7083 104.312 19.3125C104.969 19.9062 105.464 20.5833 105.797 21.3438C106.141 22.1042 106.312 22.9635 106.312 23.9219C106.312 24.9427 106.115 25.849 105.719 26.6406C105.323 27.4323 104.755 28.1042 104.016 28.6562C103.276 29.1979 102.391 29.6094 101.359 29.8906C100.328 30.1719 99.1771 30.3125 97.9062 30.3125C96.7396 30.3125 95.5885 30.1667 94.4531 29.875C93.3281 29.5729 92.3073 29.1146 91.3906 28.5C90.474 27.875 89.7396 27.0781 89.1875 26.1094C88.6458 25.1302 88.375 23.9688 88.375 22.625H93.875C93.875 23.2917 93.9635 23.8542 94.1406 24.3125C94.3177 24.7708 94.5781 25.1406 94.9219 25.4219C95.2656 25.6927 95.6875 25.8906 96.1875 26.0156C96.6875 26.1302 97.2604 26.1875 97.9062 26.1875C98.6042 26.1875 99.1667 26.0885 99.5938 25.8906C100.021 25.6823 100.333 25.4115 100.531 25.0781C100.729 24.7344 100.828 24.3594 100.828 23.9531ZM118.484 7.25L110.703 31.9531H106.953L114.734 7.25H118.484ZM129.891 20.7656L120.391 17.5469V12.7656L134.141 18.3906V21.9688L129.891 20.7656ZM120.391 23.3906L129.891 20.0938L134.141 18.9844V22.5469L120.391 28.1719V23.3906Z" fill="#6247AA"/>
</svg>
