<svg width="271" height="75" viewBox="0 0 271 75" fill="none" xmlns="http://www.w3.org/2000/svg">
<path d="M10.0312 39.2812L29.0938 45.7188V55.3125L1.4375 44.0625V36.9375L10.0312 39.2812ZM29.0938 34.0625L10 40.625L1.4375 42.875V35.75L29.0938 24.5V34.0625ZM41.5938 13.5H50.5312L60.6875 45.1562L70.8438 13.5H79.7812L64.3125 59H57.0625L41.5938 13.5ZM36.1562 13.5H45.4062L47.125 48.375V59H36.1562V13.5ZM75.9688 13.5H85.25V59H74.25V48.375L75.9688 13.5ZM112.125 23.0625L101.031 59H89.25L105.969 13.5H113.438L112.125 23.0625ZM121.312 59L110.188 23.0625L108.75 13.5H116.312L133.125 59H121.312ZM120.875 42.0312V50.5H97.5312V42.0312H120.875ZM136.469 13.5H154.375C157.875 13.5 160.917 14.0208 163.5 15.0625C166.083 16.1042 168.073 17.6458 169.469 19.6875C170.885 21.7292 171.594 24.25 171.594 27.25C171.594 29.8542 171.188 32.0312 170.375 33.7812C169.562 35.5312 168.427 36.9792 166.969 38.125C165.531 39.25 163.854 40.1771 161.938 40.9062L158.344 42.9375H143.312L143.25 34.4688H154.375C155.771 34.4688 156.927 34.2188 157.844 33.7188C158.76 33.2188 159.448 32.5104 159.906 31.5938C160.385 30.6562 160.625 29.5417 160.625 28.25C160.625 26.9375 160.385 25.8125 159.906 24.875C159.427 23.9375 158.719 23.2188 157.781 22.7188C156.865 22.2188 155.729 21.9688 154.375 21.9688H147.438V59H136.469V13.5ZM161.375 59L151.312 38.875L162.938 38.8125L173.125 58.5312V59H161.375ZM201.656 46.9062C201.656 46.1979 201.552 45.5625 201.344 45C201.135 44.4167 200.75 43.875 200.188 43.375C199.625 42.875 198.812 42.375 197.75 41.875C196.708 41.3542 195.333 40.8125 193.625 40.25C191.625 39.5833 189.698 38.8333 187.844 38C185.99 37.1458 184.333 36.1562 182.875 35.0312C181.417 33.8854 180.26 32.5521 179.406 31.0312C178.552 29.4896 178.125 27.6979 178.125 25.6562C178.125 23.6979 178.562 21.9375 179.438 20.375C180.312 18.7917 181.531 17.4479 183.094 16.3438C184.677 15.2188 186.531 14.3646 188.656 13.7812C190.781 13.1771 193.104 12.875 195.625 12.875C198.958 12.875 201.896 13.4583 204.438 14.625C207 15.7708 209 17.4062 210.438 19.5312C211.896 21.6354 212.625 24.125 212.625 27H201.719C201.719 25.8542 201.479 24.8438 201 23.9688C200.542 23.0938 199.844 22.4062 198.906 21.9062C197.969 21.4062 196.792 21.1562 195.375 21.1562C194 21.1562 192.844 21.3646 191.906 21.7812C190.969 22.1979 190.26 22.7604 189.781 23.4688C189.302 24.1562 189.062 24.9167 189.062 25.75C189.062 26.4375 189.25 27.0625 189.625 27.625C190.021 28.1667 190.573 28.6771 191.281 29.1562C192.01 29.6354 192.885 30.0938 193.906 30.5312C194.948 30.9688 196.115 31.3958 197.406 31.8125C199.823 32.5833 201.969 33.4479 203.844 34.4062C205.74 35.3438 207.333 36.4167 208.625 37.625C209.938 38.8125 210.927 40.1667 211.594 41.6875C212.281 43.2083 212.625 44.9271 212.625 46.8438C212.625 48.8854 212.229 50.6979 211.438 52.2812C210.646 53.8646 209.51 55.2083 208.031 56.3125C206.552 57.3958 204.781 58.2188 202.719 58.7812C200.656 59.3438 198.354 59.625 195.812 59.625C193.479 59.625 191.177 59.3333 188.906 58.75C186.656 58.1458 184.615 57.2292 182.781 56C180.948 54.75 179.479 53.1562 178.375 51.2188C177.292 49.2604 176.75 46.9375 176.75 44.25H187.75C187.75 45.5833 187.927 46.7083 188.281 47.625C188.635 48.5417 189.156 49.2812 189.844 49.8438C190.531 50.3854 191.375 50.7812 192.375 51.0312C193.375 51.2604 194.521 51.375 195.812 51.375C197.208 51.375 198.333 51.1771 199.188 50.7812C200.042 50.3646 200.667 49.8229 201.062 49.1562C201.458 48.4688 201.656 47.7188 201.656 46.9062ZM236.969 13.5L221.406 62.9062H213.906L229.469 13.5H236.969ZM259.781 40.5312L240.781 34.0938V24.5312L268.281 35.7812V42.9375L259.781 40.5312ZM240.781 45.7812L259.781 39.1875L268.281 36.9688V44.0938L240.781 55.3438V45.7812Z" fill="#FEFEFE"/>
</svg>
